<?xml version="1.0" encoding="UTF-8"?>
<svg width="11px" height="13px" viewBox="0 0 11 13" version="1.1" xmlns="http://www.w3.org/2000/svg" xmlns:xlink="http://www.w3.org/1999/xlink">
    <!-- Generator: Sketch 48.2 (47327) - http://www.bohemiancoding.com/sketch -->
    <title>dashboard@1x</title>
    <desc>Created with Sketch.</desc>
    <defs></defs>
    <g id="Settings-Copy-2" stroke="none" stroke-width="1" fill="none" fill-rule="evenodd" transform="translate(-82.000000, -149.000000)">
        <path d="M83.7153343,160.507981 C83.7153343,160.507981 83.8577252,160.544155 84.0334256,160.588833 C84.209082,160.633471 84.5675232,160.691364 84.8302159,160.737839 C85.5371098,160.862929 86.2620446,161.124049 87.1504912,161.875588 C87.3462126,162.041004 87.6446789,162.041603 87.8408844,161.876586 C88.7365034,161.124249 89.4631542,160.862889 90.1706202,160.737839 C90.4335768,160.691364 90.79171,160.633471 90.9675864,160.588992 L91.2856777,160.508181 C92.0986607,160.234604 92.979011,159.883768 93,158.845916 L93,150.366539 C93,150.123705 92.8313839,150.052156 92.6012529,150.176049 C91.1320663,150.966955 89.2063139,150.714619 88.0251212,149.488832 C87.9198682,149.379672 87.8242076,149.265762 87.7376114,149.148018 C87.5925804,148.950661 87.4073316,148.950661 87.2621686,149.148018 C87.1756164,149.265762 87.0799118,149.379672 86.9747468,149.488832 C85.7939941,150.714819 83.8679777,150.966915 82.3989231,150.176049 C82.1689241,150.052196 82,150.123705 82,150.366539 L82,158.845956 C82.0219571,159.883409 82.9024833,160.234444 83.7153343,160.507981 Z M83.4246124,154.527891 L91.5769277,154.527891 C91.8444165,154.527891 92.0611269,154.724689 92.0611269,154.967403 L92.0611269,158.469887 C92.0435701,159.347115 91.3135751,159.643769 90.6393307,159.874905 L90.375714,159.943339 C90.230111,159.98095 89.895387,160.032655 89.6342784,160.084559 C89.0879042,160.19312 88.5232691,160.192681 87.8406203,160.763312 C87.6437549,160.92785 87.3490728,160.927051 87.1527793,160.762074 C86.4757188,160.192481 85.9127118,160.19312 85.3672176,160.084559 C85.1058891,160.032455 84.771297,159.98095 84.625782,159.943339 C84.480179,159.905728 84.3620774,159.874905 84.3620774,159.874905 C83.687877,159.643769 82.957706,159.347075 82.9402811,158.469887 L82.9402811,154.967403 C82.9403251,154.72449 83.1572115,154.527891 83.4246124,154.527891 Z" id="dashboard" fill="#FFFFFF" fill-rule="nonzero"></path>
    </g>
</svg>