<?xml version="1.0" encoding="UTF-8"?>
<svg width="12px" height="12px" viewBox="0 0 12 12" version="1.1" xmlns="http://www.w3.org/2000/svg" xmlns:xlink="http://www.w3.org/1999/xlink">
    <!-- Generator: Sketch 48.2 (47327) - http://www.bohemiancoding.com/sketch -->
    <title>inventory</title>
    <desc>Created with Sketch.</desc>
    <defs></defs>
    <g id="Settings-Copy-2" stroke="none" stroke-width="1" fill="none" fill-rule="evenodd" transform="translate(-82.000000, -195.000000)">
        <path d="M93.3684211,195 C93.0196096,195 92.7368421,195.282768 92.7368421,195.631579 L92.7368421,196.263158 L87.0526316,196.263158 C86.7038202,196.263158 86.4210526,195.98039 86.4210526,195.631579 C86.4210526,195.282768 86.7038202,195 87.0526316,195 L93.3581395,195 C93.3615726,195 93.3649995,195.000027 93.3684198,195.000081 Z M94,196.263158 L92.7368421,196.263158 Z M82.6418605,196.894737 L91.4634027,196.894737 C91.8178924,196.894737 92.1052632,197.182108 92.1052632,197.536597 L92.1052632,206.35814 C92.1052632,206.712629 91.8178924,207 91.4634027,207 L82.6418605,207 C82.2873707,207 82,206.712629 82,206.35814 L82,197.536597 C82,197.182108 82.2873707,196.894737 82.6418605,196.894737 Z" id="inventory" fill="#FFFFFF"></path>
    </g>
</svg>