<?xml version="1.0" encoding="UTF-8"?>
<svg width="13px" height="13px" viewBox="0 0 13 13" version="1.1" xmlns="http://www.w3.org/2000/svg" xmlns:xlink="http://www.w3.org/1999/xlink">
    <!-- Generator: Sketch 48.2 (47327) - http://www.bohemiancoding.com/sketch -->
    <title>leads</title>
    <desc>Created with Sketch.</desc>
    <defs></defs>
    <g id="Settings-Copy-2" stroke="none" stroke-width="1" fill="none" fill-rule="evenodd" transform="translate(-82.000000, -281.000000)">
        <g id="leads" transform="translate(82.000000, 281.000000)" fill="#FFFFFF">
            <path d="M6.5,10.5625 C4.2599375,10.5625 2.4375,8.7400625 2.4375,6.5 C2.4375,4.2599375 4.2599375,2.4375 6.5,2.4375 C8.7400625,2.4375 10.5625,4.2599375 10.5625,6.5 C10.5625,8.7400625 8.7400625,10.5625 6.5,10.5625 M12.59375,6.09375 L11.3546875,6.09375 C11.1580625,3.729375 9.270625,1.8419375 6.90625,1.6453125 L6.90625,0.40625 C6.90625,0.182 6.72425,0 6.5,0 C6.27575,0 6.09375,0.182 6.09375,0.40625 L6.09375,1.6453125 C3.729375,1.8419375 1.8419375,3.729375 1.6453125,6.09375 L0.40625,6.09375 C0.182,6.09375 0,6.27575 0,6.5 C0,6.72425 0.182,6.90625 0.40625,6.90625 L1.6453125,6.90625 C1.8419375,9.270625 3.729375,11.1580625 6.09375,11.3546875 L6.09375,12.59375 C6.09375,12.818 6.27575,13 6.5,13 C6.72425,13 6.90625,12.818 6.90625,12.59375 L6.90625,11.3546875 C9.270625,11.1580625 11.1580625,9.270625 11.3546875,6.90625 L12.59375,6.90625 C12.818,6.90625 13,6.72425 13,6.5 C13,6.27575 12.818,6.09375 12.59375,6.09375" id="Fill-1"></path>
            <path d="M6.5,4 C5.11916667,4 4,5.11916667 4,6.5 C4,7.88083333 5.11916667,9 6.5,9 C7.88083333,9 9,7.88083333 9,6.5 C9,5.11916667 7.88083333,4 6.5,4" id="Fill-3"></path>
        </g>
    </g>
</svg>