<svg xmlns="http://www.w3.org/2000/svg" xmlns:xlink="http://www.w3.org/1999/xlink" viewBox="6493 3378 457.028 457.03" width="15" height="15">
  <defs>
    <style>
      .cls-1 {
        fill: url(#linear-gradient);
      }
    </style>
    <linearGradient id="linear-gradient" x1="1" y1="1" x2="0" gradientUnits="objectBoundingBox">
      <stop offset="0" stop-color="#00eed6"/>
      <stop offset="1" stop-color="#2e9df6"/>
    </linearGradient>
  </defs>
  <g id="link-symbol" transform="translate(6492.999 3378)">
    <path id="Path_171" data-name="Path 171" class="cls-1" d="M421.512,207.074l-85.8,85.767a119.869,119.869,0,0,1-189.95-24.465l39.864-39.861c1.9-1.911,4.235-3.006,6.471-4.3a59.687,59.687,0,0,0,14.972,25.736,60.7,60.7,0,0,0,85.762,0L378.6,164.19a60.652,60.652,0,0,0-85.768-85.781l-30.5,30.532a152.178,152.178,0,0,0-77.373-8.424l64.991-64.989A121.305,121.305,0,0,1,421.512,207.074ZM194.708,348.1l-30.521,30.532a60.66,60.66,0,0,1-85.778-85.8l85.778-85.767a60.686,60.686,0,0,1,85.767,0A60.026,60.026,0,0,1,264.94,232.78c2.249-1.307,4.56-2.369,6.454-4.266l39.861-39.845a119.213,119.213,0,0,0-18.421-24.477,121.3,121.3,0,0,0-171.543,0L35.526,249.96A121.3,121.3,0,0,0,207.073,421.513l65.008-65A152.086,152.086,0,0,1,194.708,348.1Z"/>
  </g>
</svg>
