<svg xmlns="http://www.w3.org/2000/svg" viewBox="768 506 14 14">
  <defs>
    <style>
      .cls-1 {
        fill: #fff;
      }
    </style>
  </defs>
  <path id="menu-6" class="cls-1" d="M13.789,6.1l-.811-.156a1.41,1.41,0,0,1-.871-2.218l.509-.695a.259.259,0,0,0-.026-.337l-1.1-1.1a.259.259,0,0,0-.328-.031l-.685.463a1.408,1.408,0,0,1-2.184-.953L8.163.219A.258.258,0,0,0,7.907,0H6.352A.259.259,0,0,0,6.1.211L5.9,1.258A1.415,1.415,0,0,1,4.507,2.4a1.4,1.4,0,0,1-.786-.242l-.883-.6a.259.259,0,0,0-.328.031l-1.1,1.1a.26.26,0,0,0-.026.337l.509.695a1.41,1.41,0,0,1-.871,2.218L.21,6.1A.259.259,0,0,0,0,6.352V7.908a.259.259,0,0,0,.219.256l.851.131a1.41,1.41,0,0,1,.953,2.184l-.463.684a.259.259,0,0,0,.031.328l1.1,1.1a.259.259,0,0,0,.337.026l.695-.509a1.4,1.4,0,0,1,.829-.273,1.415,1.415,0,0,1,1.389,1.145l.157.811a.259.259,0,0,0,.254.21H7.908a.259.259,0,0,0,.256-.219l.092-.6a1.408,1.408,0,0,1,1.4-1.2,1.393,1.393,0,0,1,.829.275l.488.358a.259.259,0,0,0,.337-.026l1.1-1.1a.259.259,0,0,0,.031-.328l-.463-.684A1.41,1.41,0,0,1,12.929,8.3l.852-.133A.259.259,0,0,0,14,7.907V6.352a.259.259,0,0,0-.211-.254ZM7.13,10.965A3.835,3.835,0,1,1,10.965,7.13,3.84,3.84,0,0,1,7.13,10.965Z" transform="translate(768 506)"/>
</svg>
