<?xml version="1.0" encoding="UTF-8"?>
<svg width="12px" height="13px" viewBox="0 0 12 13" version="1.1" xmlns="http://www.w3.org/2000/svg" xmlns:xlink="http://www.w3.org/1999/xlink">
    <!-- Generator: Sketch 48.2 (47327) - http://www.bohemiancoding.com/sketch -->
    <title>posting</title>
    <desc>Created with Sketch.</desc>
    <defs></defs>
    <g id="Settings-Copy-2" stroke="none" stroke-width="1" fill="none" fill-rule="evenodd" transform="translate(-83.000000, -237.000000)">
        <g id="posting" transform="translate(83.000000, 237.000000)">
            <path d="M11.8242252,6.69822903 C12.0585849,6.9438871 12.0585849,7.34210645 11.8242652,7.58776452 L6.83759145,12.8157355 C6.72507159,12.9337 6.57247178,13 6.41331198,13 L4.59999425,13 C4.26863466,13 3.999995,12.7183613 3.999995,12.3709677 L3.999995,11.3226645 L0.59999925,11.3226645 C0.268639664,11.3226645 0,11.0410258 0,10.6936323 L0,0.629032258 C0,0.28163871 0.268639664,0 0.59999925,0 L8.19998975,0 C8.53134934,0 8.799989,0.28163871 8.799989,0.629032258 L8.799989,5.17710323 L9.16238855,4.79716774 C9.39670825,4.55150968 9.77662778,4.55150968 10.0109075,4.79716774 L11.8242252,6.69822903 Z M1,1 L1,10 L4.217375,10 C4.22931875,9.98615721 4.241525,9.9725287 4.2547375,9.95962876 L8,6.29086052 L8,1 L1,1 Z" id="Posting" fill="#FFFFFF"></path>
            <polygon id="Path" fill="#535376" points="5.90143287 12 5 12 5 10.9182357 9.09856713 6 10 7.08171945"></polygon>
        </g>
    </g>
</svg>