<?xml version="1.0" encoding="UTF-8"?>
<svg width="13px" height="13px" viewBox="0 0 13 13" version="1.1" xmlns="http://www.w3.org/2000/svg" xmlns:xlink="http://www.w3.org/1999/xlink">
    <!-- Generator: Sketch 48.2 (47327) - http://www.bohemiancoding.com/sketch -->
    <title>Combined Shape Copy</title>
    <desc>Created with Sketch.</desc>
    <defs>
        <linearGradient x1="100%" y1="15.2742361%" x2="16.9300949%" y2="80.8040759%" id="linearGradient-1">
            <stop stop-color="#1FDDFF" offset="0%"></stop>
            <stop stop-color="#21A0FF" offset="100%"></stop>
        </linearGradient>
    </defs>
    <g id="Settings-Copy-2" stroke="none" stroke-width="1" fill="none" fill-rule="evenodd" transform="translate(-320.000000, -583.000000)">
        <path d="M325.2,596 C322.233088,595.391664 320,592.742084 320,589.565669 C320,588.767963 320.140837,588.003484 320.398764,587.296218 C320.531702,587.38663 320.680574,587.486319 320.845379,587.595284 C320.63451,588.212841 320.52,588.875747 320.52,589.565669 C320.52,592.450738 322.522423,594.863391 325.2,595.46295 L325.2,596 Z M327.8,596 L327.8,595.46295 C330.477577,594.863391 332.48,592.450738 332.48,589.565669 C332.48,588.933017 332.383712,588.323081 332.205131,587.749999 L332.651032,587.437776 C332.877236,588.105097 333,588.820901 333,589.565669 C333,592.742084 330.766912,595.391664 327.8,596 Z M321.951552,584.875304 C323.123855,583.715235 324.729237,583 326.5,583 C328.342552,583 330.006041,583.774404 331.188874,585.018571 L330.755572,585.321973 C329.671335,584.21271 328.165147,583.525253 326.5,583.525253 C324.906844,583.525253 323.459198,584.154553 322.387399,585.180487 L321.951552,584.875304 Z" id="Combined-Shape-Copy" fill="url(#linearGradient-1)"></path>
    </g>
</svg>